<?xml version="1.0" encoding="UTF-8" standalone="no"?>
<!-- Created with Inkscape (http://www.inkscape.org/) -->

<svg
   width="512mm"
   height="512mm"
   viewBox="0 0 512.00001 512"
   version="1.1"
   id="svg1"
   inkscape:version="1.4.2 (ebf0e940d0, 2025-05-08)"
   sodipodi:docname="fairaccess-logo.svg"
   xmlns:inkscape="http://www.inkscape.org/namespaces/inkscape"
   xmlns:sodipodi="http://sodipodi.sourceforge.net/DTD/sodipodi-0.dtd"
   xmlns:xlink="http://www.w3.org/1999/xlink"
   xmlns="http://www.w3.org/2000/svg"
   xmlns:svg="http://www.w3.org/2000/svg">
  <sodipodi:namedview
     id="namedview1"
     pagecolor="#ffffff"
     bordercolor="#000000"
     borderopacity="0.25"
     inkscape:showpageshadow="2"
     inkscape:pageopacity="0.0"
     inkscape:pagecheckerboard="0"
     inkscape:deskcolor="#d1d1d1"
     inkscape:document-units="mm"
     inkscape:zoom="0.32248878"
     inkscape:cx="451.17849"
     inkscape:cy="238.768"
     inkscape:window-width="3072"
     inkscape:window-height="1659"
     inkscape:window-x="0"
     inkscape:window-y="0"
     inkscape:window-maximized="1"
     inkscape:current-layer="layer1" />
  <defs
     id="defs1">
    <linearGradient
       inkscape:collect="always"
       xlink:href="#linearGradient2"
       id="linearGradient3"
       x1="119.96133"
       y1="171.97189"
       x2="151.26135"
       y2="140.72998"
       gradientUnits="userSpaceOnUse"
       gradientTransform="matrix(10.960379,0,0,10.960379,-1142.2074,-1386.1921)" />
    <linearGradient
       id="linearGradient2"
       inkscape:collect="always">
      <stop
         style="stop-color:#0d2a42;stop-opacity:1;"
         offset="0"
         id="stop2" />
      <stop
         style="stop-color:#469bac;stop-opacity:1;"
         offset="1"
         id="stop3" />
    </linearGradient>
  </defs>
  <g
     inkscape:label="Layer 1"
     inkscape:groupmode="layer"
     id="layer1"
     transform="translate(-87.312501,-70.643744)">
    <path
       d="m 300.77113,70.657729 c -2.51629,0.06574 -5.28136,0.403347 -8.35991,1.092742 -24.84094,5.56447 -20.26333,19.605835 -42.08304,29.333479 -11.09157,4.9449 -17.50415,4.54692 -24.96094,4.36126 -6.95668,-0.17312 -14.75038,-0.12167 -25.063,7.00631 -20.81057,14.38529 -11.38783,25.85928 -28.35922,42.83063 -16.97127,16.97129 -28.44568,7.54854 -42.83075,28.35932 -7.12841,10.31262 -7.1798,18.10689 -7.00618,25.06289 0.18643,7.45612 0.58308,13.86378 -4.36126,24.95525 -9.72766,21.8197 -23.763628,17.24757 -29.32789,42.08871 -2.758403,12.31456 0.169954,19.61866 3.013223,25.9861 3.074184,6.88398 5.930014,12.55851 5.884851,24.90998 0.04391,12.35135 -2.810888,18.02522 -5.884851,24.90997 -2.843453,6.36832 -5.771724,13.67736 -3.013223,25.99177 5.56458,24.84106 19.60023,20.26333 29.32789,42.08304 4.9449,11.09157 4.54682,17.50416 4.36126,24.96095 -0.17312,6.95665 -0.12168,14.74477 7.00618,25.05728 14.3853,20.81068 25.85939,11.38805 42.83075,28.35933 8.61027,8.61025 10.51792,14.83037 12.96472,21.85708 2.2928,6.58412 5.08429,13.84865 15.40021,20.97925 10.3126,7.12842 18.10128,7.17971 25.05729,7.00621 7.45612,-0.18623 13.86937,-0.58856 24.96094,4.35566 11.08488,4.94192 15.07008,9.96407 19.93706,15.59278 4.52739,5.23577 9.8526,10.98701 22.14598,13.74069 12.31453,2.7583 19.62422,-0.1753 25.99176,-3.01892 6.8839,-3.07417 12.55851,-5.9243 24.90999,-5.87915 12.35147,-0.0439 18.02521,2.8052 24.90998,5.87915 6.36831,2.84344 13.67154,5.77744 25.98606,3.01892 12.29339,-2.7538 17.62508,-8.50526 22.15169,-13.74069 4.8662,-5.6285 8.84647,-10.65096 19.93135,-15.59278 11.09158,-4.94491 17.50417,-4.54122 24.96096,-4.35566 6.95666,0.17313 14.75025,0.11738 25.06287,-7.01191 10.31569,-7.13071 13.10248,-14.38986 15.39463,-20.97355 2.44625,-7.02628 4.35454,-13.24122 12.96467,-21.8515 8.61028,-8.61024 14.82482,-10.52349 21.85151,-12.97039 6.58422,-2.29271 13.84855,-5.07871 20.97916,-15.39452 7.1284,-10.31262 7.17991,-18.10128 7.0063,-25.05728 -0.18644,-7.45614 -0.58309,-13.86938 4.36125,-24.96095 4.94193,-11.08488 9.96408,-15.06997 15.59277,-19.93705 5.23578,-4.52729 10.98144,-9.8582 13.73512,-22.15158 2.75829,-12.31453 -0.16875,-19.61863 -3.01323,-25.98618 -3.07406,-6.88399 -5.93,-12.5585 -5.88483,-24.90997 -0.0438,-12.35137 2.81088,-18.02522 5.88483,-24.90998 2.84347,-6.36832 5.77174,-13.67725 3.01323,-25.99178 -2.75379,-12.29339 -8.49956,-17.61935 -13.73512,-22.14601 -5.62836,-4.86617 -10.65084,-8.85204 -15.59277,-19.93702 -4.94477,-11.09147 -4.54693,-17.50405 -4.36125,-24.96094 0.17313,-6.95656 0.1227,-14.74458 -7.0063,-25.0572 -7.13071,-10.3158 -14.39547,-13.10246 -20.97916,-15.39461 -7.02625,-2.44625 -13.24123,-4.35444 -21.85151,-12.96471 -16.97125,-16.97135 -7.55409,-28.44556 -28.36489,-42.83063 -10.31261,-7.12841 -18.10129,-7.18552 -25.05728,-7.01201 -7.45614,0.18643 -13.86938,0.58857 -24.96096,-4.35556 -21.81971,-9.727767 -17.24188,-23.769217 -42.08304,-29.333479 -12.31452,-2.758391 -19.62422,0.175314 -25.99176,3.018841 -6.88389,3.074159 -12.55281,5.930087 -24.90428,5.884827 -12.35148,0.04391 -18.03105,-2.810888 -24.91568,-5.884827 -4.7762,-2.132569 -10.0772,-4.318297 -17.62616,-4.112024 z"
       style="fill:url(#linearGradient3);fill-opacity:1;stroke-width:1.32943;stroke-linecap:square"
       id="path10"
       sodipodi:nodetypes="ccsscssscsscsssscsssscssscssssssssssscssccsssssssssscsscscc" />
    <path
       fill="currentColor"
       d="m 276.50004,315.99322 c -43.3415,-0.009 -69.65136,-47.80009 -46.48122,-84.42673 23.17013,-36.6266 77.6248,-33.32579 96.19948,5.83379 h 115.32794 l 23.57785,23.57753 -23.57785,23.57852 -15.71894,-15.71916 -15.71838,15.71916 -15.71862,-15.71916 -15.71903,15.71916 -15.71829,-15.71916 -15.7184,15.71916 H 326.2183 c -9.10896,19.203 -28.46434,31.44138 -49.71826,31.43689"
       id="path1"
       style="fill:none;fill-opacity:1;stroke:#fffffe;stroke-width:16.4405;stroke-linecap:butt;stroke-linejoin:round;stroke-dasharray:none;stroke-opacity:1"
       sodipodi:nodetypes="cscccccccccccc" />
    <path
       id="path11"
       style="fill:none;stroke:#ffffff;stroke-width:16.4405;stroke-linecap:round;stroke-linejoin:round;stroke-dasharray:none;stroke-opacity:1"
       d="m 494.57529,463.15338 c 0,0 -45.84618,-33.10602 -64.89552,-39.02299 -5.79027,-1.79674 -12.29788,-1.94197 -18.33682,-1.40502 -8.43698,0.75299 -16.81433,2.18847 -25.11078,3.89643 -9.63363,1.9824 -18.7428,7.07053 -28.57427,7.35999 -6.76135,0.20276 -14.11631,-0.41539 -19.91532,-3.89631 -26.49563,-15.91161 -55.40593,-32.94218 -79.47525,-47.06923 -14.78664,-8.67689 4.93843,-35.4497 17.56104,-28.81472 20.25841,10.64888 54.84979,30.51412 57.10677,31.11904 h 52.38633 -49.71671 c -4.55482,0 -10.46224,-7.90551 -10.46224,-13.85426 0,-6.62816 4.33066,-14.80933 11.03985,-14.72011 11.4,0.16876 23.74994,0 34.20251,0 9.10097,0 17.45835,-5.28344 26.40971,-6.92707 7.99425,-1.46914 16.13795,-3.18135 24.24499,-2.59718 6.38869,0.45925 12.88416,1.90482 18.61642,4.76228 6.61568,3.29962 20.33162,17.13371 26.85568,20.61022 9.90259,5.27678 69.34763,20.6303 69.34763,20.6303 m -41.28402,69.92863 c -38.63434,42.81026 -93.59955,67.2451 -151.26518,67.2451 -112.53065,0 -203.75474,-91.2241 -203.75474,-203.75473 0,-112.53067 91.22409,-203.75489 203.75474,-203.75489 112.53075,0 203.75489,91.22413 203.75489,203.75489 v 0 c 0,22.65762 -3.77916,45.15652 -11.18178,66.5707" />
  </g>
</svg>
