<?xml version="1.0" encoding="UTF-8"?>
<!-- Created with Inkscape (http://www.inkscape.org/) -->
<svg width="512mm" height="512mm" version="1.1" viewBox="0 0 512 512" xmlns="http://www.w3.org/2000/svg" xmlns:xlink="http://www.w3.org/1999/xlink">
 <defs>
  <linearGradient id="linearGradient3" x1="119.96" x2="151.26" y1="171.97" y2="140.73" gradientTransform="matrix(10.96 0 0 10.96 -1142.2 -1386.2)" gradientUnits="userSpaceOnUse">
   <stop style="stop-color:#0d2a42" offset="0"/>
   <stop style="stop-color:#469bac" offset="1"/>
  </linearGradient>
 </defs>
 <g transform="translate(-87.313 -70.644)">
  <path d="m300.77 70.658c-2.5163 0.06574-5.2814 0.40335-8.3599 1.0927-24.841 5.5645-20.263 19.606-42.083 29.333-11.092 4.9449-17.504 4.5469-24.961 4.3613-6.9567-0.17312-14.75-0.12167-25.063 7.0063-20.811 14.385-11.388 25.859-28.359 42.831-16.971 16.971-28.446 7.5485-42.831 28.359-7.1284 10.313-7.1798 18.107-7.0062 25.063 0.18643 7.4561 0.58308 13.864-4.3613 24.955-9.7277 21.82-23.764 17.248-29.328 42.089-2.7584 12.315 0.16995 19.619 3.0132 25.986 3.0742 6.884 5.93 12.559 5.8849 24.91 0.04391 12.351-2.8109 18.025-5.8849 24.91-2.8435 6.3683-5.7717 13.677-3.0132 25.992 5.5646 24.841 19.6 20.263 29.328 42.083 4.9449 11.092 4.5468 17.504 4.3613 24.961-0.17312 6.9566-0.12168 14.745 7.0062 25.057 14.385 20.811 25.859 11.388 42.831 28.359 8.6103 8.6102 10.518 14.83 12.965 21.857 2.2928 6.5841 5.0843 13.849 15.4 20.979 10.313 7.1284 18.101 7.1797 25.057 7.0062 7.4561-0.18623 13.869-0.58856 24.961 4.3557 11.085 4.9419 15.07 9.9641 19.937 15.593 4.5274 5.2358 9.8526 10.987 22.146 13.741 12.315 2.7583 19.624-0.1753 25.992-3.0189 6.8839-3.0742 12.559-5.9243 24.91-5.8792 12.351-0.0439 18.025 2.8052 24.91 5.8792 6.3683 2.8434 13.672 5.7774 25.986 3.0189 12.293-2.7538 17.625-8.5053 22.152-13.741 4.8662-5.6285 8.8465-10.651 19.931-15.593 11.092-4.9449 17.504-4.5412 24.961-4.3557 6.9567 0.17313 14.75 0.11738 25.063-7.0119 10.316-7.1307 13.102-14.39 15.395-20.974 2.4462-7.0263 4.3545-13.241 12.965-21.852 8.6103-8.6102 14.825-10.523 21.852-12.97 6.5842-2.2927 13.849-5.0787 20.979-15.395 7.1284-10.313 7.1799-18.101 7.0063-25.057-0.18644-7.4561-0.58309-13.869 4.3612-24.961 4.9419-11.085 9.9641-15.07 15.593-19.937 5.2358-4.5273 10.981-9.8582 13.735-22.152 2.7583-12.315-0.16875-19.619-3.0132-25.986-3.0741-6.884-5.93-12.558-5.8848-24.91-0.0438-12.351 2.8109-18.025 5.8848-24.91 2.8435-6.3683 5.7717-13.677 3.0132-25.992-2.7538-12.293-8.4996-17.619-13.735-22.146-5.6284-4.8662-10.651-8.852-15.593-19.937-4.9448-11.091-4.5469-17.504-4.3612-24.961 0.17313-6.9566 0.1227-14.745-7.0063-25.057-7.1307-10.316-14.395-13.102-20.979-15.395-7.0262-2.4462-13.241-4.3544-21.852-12.965-16.971-16.971-7.5541-28.446-28.365-42.831-10.313-7.1284-18.101-7.1855-25.057-7.012-7.4561 0.18643-13.869 0.58857-24.961-4.3556-21.82-9.7278-17.242-23.769-42.083-29.333-12.315-2.7584-19.624 0.17531-25.992 3.0188-6.8839 3.0742-12.553 5.9301-24.904 5.8848-12.351 0.04391-18.031-2.8109-24.916-5.8848-4.7762-2.1326-10.077-4.3183-17.626-4.112z" style="fill:url(#linearGradient3);stroke-linecap:square;stroke-width:1.3294"/>
  <path d="m276.5 315.99c-43.342-9e-3 -69.651-47.8-46.481-84.427 23.17-36.627 77.625-33.326 96.199 5.8338h115.33l23.578 23.578-23.578 23.579-15.719-15.719-15.718 15.719-15.719-15.719-15.719 15.719-15.718-15.719-15.718 15.719h-21.016c-9.109 19.203-28.464 31.441-49.718 31.437" fill="currentColor" style="fill:none;stroke-linejoin:round;stroke-width:16.44;stroke:#fffffe"/>
  <path d="m494.58 463.15s-45.846-33.106-64.896-39.023c-5.7903-1.7967-12.298-1.942-18.337-1.405-8.437 0.75299-16.814 2.1885-25.111 3.8964-9.6336 1.9824-18.743 7.0705-28.574 7.36-6.7614 0.20276-14.116-0.41539-19.915-3.8963-26.496-15.912-55.406-32.942-79.475-47.069-14.787-8.6769 4.9384-35.45 17.561-28.815 20.258 10.649 54.85 30.514 57.107 31.119h52.386-49.717c-4.5548 0-10.462-7.9055-10.462-13.854 0-6.6282 4.3307-14.809 11.04-14.72 11.4 0.16876 23.75 0 34.203 0 9.101 0 17.458-5.2834 26.41-6.9271 7.9942-1.4691 16.138-3.1814 24.245-2.5972 6.3887 0.45925 12.884 1.9048 18.616 4.7623 6.6157 3.2996 20.332 17.134 26.856 20.61 9.9026 5.2768 69.348 20.63 69.348 20.63m-41.284 69.929c-38.634 42.81-93.6 67.245-151.27 67.245-112.53 0-203.75-91.224-203.75-203.75 0-112.53 91.224-203.75 203.75-203.75 112.53 0 203.75 91.224 203.75 203.75v0c0 22.658-3.7792 45.157-11.182 66.571" style="fill:none;stroke-linecap:round;stroke-linejoin:round;stroke-width:16.44;stroke:#fff"/>
 </g>
</svg>
